<svg xmlns="http://www.w3.org/2000/svg" viewBox="0 0 193.14 147.15"><defs><style>.cls-1{fill:#212121;}.cls-2{fill:#232322;}.cls-3{fill:#ababab;}.cls-4{fill:#35ac4a;}.cls-5{fill:#35ab4a;}.cls-6{fill:#254922;}.cls-7{fill:#97cf99;}.cls-8{fill:#dc3427;}.cls-9{fill:#74a143;}.cls-10{fill:#242423;}.cls-11{fill:#232423;}</style></defs><title>Asset 2logo</title><g id="Layer_2" data-name="Layer 2"><g id="Layer_1-2" data-name="Layer 1"><path class="cls-1" d="M53,115.88a.69.69,0,0,1,0,.6c-1.33,3.18-2.67,6.37-4.19,9.47a6,6,0,0,1-1.3,1.85,3.71,3.71,0,0,1-3.08,1.12,104.23,104.23,0,0,1-13.71-2.26c-.41-.11-.83-.21-1.23-.34-2.77-.9-3.56-2-3.49-4.9a22,22,0,0,1,.76-4.9c.12-.5.38-.73.89-.67.14,0,.29,0,.43,0H52.16C52.43,115.85,52.71,115.87,53,115.88Z"/><path class="cls-2" d="M31.94,37.15c.58-2,1.08-3.75,1.57-5.47,2.64-9.19,4.78-18.51,7.1-27.78.85-3.39,1.5-3.92,5-3.81A14.94,14.94,0,0,1,52,1.45c2.88,1.45,3.81,3.09,3.48,6.28a42.6,42.6,0,0,1-2,8.26A285.44,285.44,0,0,1,40.37,50q-.49,1.1-1.08,2.16a3.6,3.6,0,0,1-2.81,1.93,9.2,9.2,0,0,1-1.28.1H27.81a7,7,0,0,1-6.62-4.1,28.53,28.53,0,0,1-2.14-6.75C16.19,31.28,13.26,19.18,10.62,7,10.39,6,10.16,4.89,10,3.82c-.35-2,.36-3.06,2.36-3.49A21.5,21.5,0,0,1,19,.19a13.44,13.44,0,0,1,1.54.28,8.33,8.33,0,0,1,6.71,7.37c.52,3.22,1,6.46,1.46,9.69q1.41,9,2.88,18.09C31.65,36,31.77,36.42,31.94,37.15Z"/><path class="cls-2" d="M161.51,64a26.67,26.67,0,0,1-5.56-.55,12.88,12.88,0,0,1-3.63-1.57,1.47,1.47,0,0,1-.86-1.51,1.53,1.53,0,0,1,1.28-1.34,11.29,11.29,0,0,1,2.95-.35,17.38,17.38,0,0,0,3.94-.45,11.92,11.92,0,0,0,6.39-4,21.85,21.85,0,0,0,1.76-2.41,54.46,54.46,0,0,0,4.08-8.11,24.18,24.18,0,0,0,1.44-10.46c-.13-3.18-.3-6.34-.18-9.52,0-.6.13-1.16-.63-1.52a.87.87,0,0,1-.23-1.36,16.7,16.7,0,0,0,1.67-3.74,8.13,8.13,0,0,1,3.51-4.31,2.13,2.13,0,0,0,1-2.57,4.78,4.78,0,0,1,.28-3.33,2.22,2.22,0,0,1,3.66-.73c.63.55.79,1.08.26,1.72a1.29,1.29,0,0,0-.17,1.55,3.29,3.29,0,0,1,.37,2.06,1.11,1.11,0,0,0,.67,1.27,6.08,6.08,0,0,1,3,4.11,4.62,4.62,0,0,0,1.12,2.1c.56.58.92,1.23.37,2-.29.4-.1.82-.06,1.24a59.52,59.52,0,0,1-.3,16,32.73,32.73,0,0,1-14.33,22.45A21.07,21.07,0,0,1,161.51,64Z"/><path class="cls-2" d="M126.51,19.26c0,.12-.08.23-.11.35a16.2,16.2,0,0,0-.6,3.62C126,21.9,126.23,20.57,126.51,19.26Z"/><path class="cls-3" d="M126.84,17.13A1.49,1.49,0,0,1,127,16,1.2,1.2,0,0,1,126.84,17.13Z"/><path class="cls-1" d="M139.07,70.92c0-1,0-2.08,0-3.12-.32-5.25-3.26-8.89-8.2-10.16a15.36,15.36,0,0,0-3.94-.43q-44.8.18-89.59.32a19.16,19.16,0,0,0-2.83.22,10,10,0,0,0-8.62,7.92,22.94,22.94,0,0,0-.34,5.23c0,1.07,0,1.08-1.11,1.09-2.84,0-5.68,0-8.53,0a8.19,8.19,0,0,0-1,0,.83.83,0,0,0-.76.88.8.8,0,0,0,.73.89,6.07,6.07,0,0,0,1.13.06c3.21-.12,6.41-.4,9.62-.29,1.75,0,3.51,0,5.26,0,.33,0,1-.44,1,.33,0,.61-.57.5-1,.51-.81,0-1.62,0-2.42,0s-1.42,0-2.13,0-.87.2-.82.82,0,1,0,1.56c.06.72-.27.93-.92.86-.28,0-.57,0-.86,0H2a7.79,7.79,0,0,0-1.28.06.82.82,0,0,0-.7.92.79.79,0,0,0,.68.8A7.73,7.73,0,0,0,2,79.51c5.87-.16,11.73.22,17.6-.24,3.91-.31,7.85.1,11.78-.16.27,0,.46,0,.51.31a.46.46,0,0,1-.3.56,4.1,4.1,0,0,1-1,.09c-1.32,0-2.65,0-4,0-1.05,0-1.07,0-1.07,1.11,0,3.89,0,7.78,0,11.66,0,1.06,0,1.08-1.09,1.08H13.17c-.33,0-.66,0-1,0a.87.87,0,0,0-.92.88c0,.65.34,1,.94,1,.33,0,.66,0,1,0,2.69,0,5.37-.07,8.06-.25,3.26-.22,6.53.07,9.8-.13.2,0,.37,0,.43.21a.52.52,0,0,1-.23.61,1.61,1.61,0,0,1-1,.12c-1.37,0-2.74,0-4.12,0-.48,0-.68.16-.67.66,0,.9,0,1.8,0,2.7,0,1.55.17,1.48-1.43,1.48H8.43a10.86,10.86,0,0,0-1.14,0,.89.89,0,0,0,0,1.76c.37,0,.75,0,1.13,0,3.12.1,6.23-.17,9.34-.26s6.25,0,9.38,0c1.28,0,2.56,0,3.84,0,.22,0,.49-.1.53.25a.48.48,0,0,1-.45.6,8,8,0,0,1-.85,0H26.77c-1.27,0-1.28-.14-1.27,1.2,0,1.8,0,3.6,0,5.4,0,1.16,0,1.1,1.08,1.09H137.63c1.48,0,1.43.19,1.43-1.16C139.13,97.09,139.31,84,139.07,70.92ZM62.19,84.5a6.54,6.54,0,0,1,3,6.46c-.51,5.61-3.7,9.2-8.82,11.11a19.76,19.76,0,0,1-11.32.66,8.6,8.6,0,0,1-2.25-.84,5.09,5.09,0,0,1-2.74-5.32,3.9,3.9,0,0,1,2.28-3.21,8.15,8.15,0,0,1,2.88-.68c.89-.08,1.72-.13,1.92,1.07a1.76,1.76,0,0,0,.79,1c2.36,1.79,6.69.62,7.71-2.17,1.1-3-.07-4.94-3.19-5.12-2.08-.12-4.17-.16-6.25-.27-1.15-.07-1.17-.13-1.1-1.28,0-.29,0-.57.07-.85.26-2.1,1.06-2.92,3.16-3.15,1.18-.12,2.36-.14,3.55-.2.56,0,1.14,0,1.7-.07a4,4,0,0,0,3.06-5.76A2.72,2.72,0,0,0,54,74.38c-1.76,0-3.43.38-4.22,2.26a.84.84,0,0,1-.88.57,9.18,9.18,0,0,1-2.8-.33,3.55,3.55,0,0,1-2.44-4.7,5.88,5.88,0,0,1,2.82-3.24,12.83,12.83,0,0,1,5.24-1.66,21.2,21.2,0,0,1,6.79.16,11.63,11.63,0,0,1,2.92,1.07A7.3,7.3,0,0,1,65.32,75a8.52,8.52,0,0,1-3.79,8.21c-.18.12-.45.19-.45.58Zm30,14.9a12.91,12.91,0,0,1-6.06,3.25,18.81,18.81,0,0,1-7.76.32,9.66,9.66,0,0,1-8.07-8.12,34.75,34.75,0,0,1,.89-17A16.14,16.14,0,0,1,74,72.35a13.52,13.52,0,0,1,9.91-5.17,20.6,20.6,0,0,1,7.33.55,7.24,7.24,0,0,1,3.26,1.93,4.93,4.93,0,0,1,1.15,4.76,3.51,3.51,0,0,1-1.78,2.29,8.46,8.46,0,0,1-4,.89.79.79,0,0,1-.94-.8c-.15-1.29-1-1.81-2.24-2-3.24-.43-5.4.74-6.71,3.74a10.59,10.59,0,0,0-.94,5.61c.58,0,.67-.48.89-.75,3.41-4.19,9.29-3.78,12.29-1.88a7.91,7.91,0,0,1,3.62,6C96.46,92.05,95.46,96.11,92.14,99.4Zm20.08,3.66a19.64,19.64,0,0,1-8.68-.89,8.07,8.07,0,0,1-3.25-2A4.19,4.19,0,0,1,102,93.05,9.28,9.28,0,0,1,104,92.7c1-.11,1.76-.12,2.08,1.09A2.15,2.15,0,0,0,107.52,95a6.77,6.77,0,0,0,4.46.22,4.27,4.27,0,0,0,2.52-2,6.32,6.32,0,0,0,.71-4.93,2.9,2.9,0,0,0-2.62-2.42,2.67,2.67,0,0,0-3.12,1.83,1.11,1.11,0,0,1-1.19.77c-1.14,0-2.28,0-3.41-.07-2.58-.19-3.55-1.23-3.53-3.81a49.26,49.26,0,0,1,.46-5.81c.4-3.24.81-6.48,1.26-9.71.2-1.48.24-1.49,1.65-1.49q8.75,0,17.49,0c1.42,0,1.51.12,1.42,1.58-.06.8-.13,1.6-.23,2.4-.23,1.92-1.11,2.78-3,2.88-1.47.07-2.94,0-4.41,0s-2.94,0-4.41,0c-.47,0-.81,0-.89.64-.27,2.2-.58,4.4-.9,6.74A10,10,0,0,1,116,80.78,8.48,8.48,0,0,1,123.64,88C124.81,95.24,120.62,102.12,112.22,103.06Z"/><path class="cls-1" d="M192,101.58a163.79,163.79,0,0,0-6.33-19.43,29.22,29.22,0,0,0-3.16-6,3.08,3.08,0,0,0-2-1.33,90.57,90.57,0,0,0-11.13-1.31c-7-.55-14.09-.81-21.12-1.44-1.67-.15-1.49-.23-1.49,1.33q0,20.53.1,41.08c0,2.15.19,1.84-1.79,1.82l-63.83-.43H79.34a1.57,1.57,0,0,0,0,.48l4.3,10.21a4.4,4.4,0,0,0,2.53,2.35,8.74,8.74,0,0,0,3.47.58l23.18,0h37.81c1.24,0,1.23,0,1.5-1.24a25.15,25.15,0,0,1,3.29-8.11c4.3-6.71,11.38-8.72,17.84-7.6,4.69.82,8,3.64,10.41,7.67a24.88,24.88,0,0,1,2.78,7.11c.1.41.12.8.56,1.07,2.34,1.49,4.8.39,5.2-2.32a89.13,89.13,0,0,0,.84-16.16A38.57,38.57,0,0,0,192,101.58Zm-11.14-2.94c-4.83-.6-9.67-1.19-14.53-1.65-.71-.06-1.42-.12-2.12-.24a3.45,3.45,0,0,1-3-3.44c-.15-4.78-.26-9.57-.37-14.35,0-1,0-1,1-1,2.93.2,5.86.43,8.78.66,2.13.16,4.25.37,6.38.47a3,3,0,0,1,2.43,1.24,17.82,17.82,0,0,1,1,1.52,89.72,89.72,0,0,1,7,17.53Z"/><path class="cls-1" d="M169.47,118.06A14.55,14.55,0,1,0,184,132.66,14.54,14.54,0,0,0,169.47,118.06Zm-.14,22.15a7.6,7.6,0,1,1,7.61-7.56A7.61,7.61,0,0,1,169.33,140.21Z"/><path class="cls-1" d="M65.8,118.05A14.55,14.55,0,1,0,80.46,132.6,14.6,14.6,0,0,0,65.8,118.05Zm0,22.16a7.6,7.6,0,1,1,7.7-7.51A7.69,7.69,0,0,1,65.82,140.21Z"/><path class="cls-4" d="M31.68,41.91l2.11-7.16c3-10.26,5.43-20.65,8-31,.08-.32.17-.64.26-1A1.87,1.87,0,0,1,44.1,1.19a18.4,18.4,0,0,1,5.77.58A8.64,8.64,0,0,1,53,3.4a3.9,3.9,0,0,1,1.42,3.79c-.63,4.91-2.33,9.54-3.9,14.19A305.31,305.31,0,0,1,39,50.4a4.25,4.25,0,0,1-4.43,2.8c-2-.07-4,0-6,0-3.88.05-5.85-1.6-7.11-5.09s-1.84-7-2.73-10.56c-1.17-4.63-2.19-9.29-3.26-13.94q-2.08-9-4.13-18.09c-.14-.65-.25-1.3-.34-1.95-.19-1.34,0-1.69,1.3-2.1a3.12,3.12,0,0,1,.82-.22,25.16,25.16,0,0,1,7.35.33,7.1,7.1,0,0,1,5.53,6c.46,2.5.78,5,1.17,7.56.43,2.75.85,5.5,1.29,8.25.52,3.31,1,6.62,1.58,9.93.4,2.52.81,5,1.23,7.55A7.77,7.77,0,0,0,31.68,41.91Z"/><path class="cls-2" d="M72.62,35.58a21.21,21.21,0,0,0,8.16-3.51c4.19-3.22,5.6-7.51,4.62-12.59-.83-4.31-3.7-6.81-7.77-8a22.63,22.63,0,0,0-9-.63c-6.89.75-12.15,4-15.44,10.18a29.18,29.18,0,0,0-3.12,17.35A15,15,0,0,0,61.87,51.7,26.11,26.11,0,0,0,75,51.49a12.54,12.54,0,0,0,5.88-3.29c2.54-2.61,2.86-8.32-2.7-10.12-2.17-.71-3.16-.45-4.56,1.38a5.13,5.13,0,0,1-5.94,1.84,4.7,4.7,0,0,1-3.41-4.6c.46,0,.92-.09,1.38-.11A36.12,36.12,0,0,0,72.62,35.58ZM66.19,23.91a3.54,3.54,0,0,1,2.32-1.72,2.38,2.38,0,0,1,2.56.74,2.81,2.81,0,0,1,.28,2.95,3.22,3.22,0,0,1-1.46,1.5,11.52,11.52,0,0,1-5.44,1.43A10.71,10.71,0,0,1,66.19,23.91Z"/><path class="cls-5" d="M176.29,21.11c.05-.08.09-.17.14-.24.84-1,.84-1,2.07-.38a2.54,2.54,0,0,0,2.45,0,5.21,5.21,0,0,1,1.14-.55c.8-.17,1.53-.36,2.18.44a3.23,3.23,0,0,0,1.77.84c.53.14.7.46.8,1a29.43,29.43,0,0,1,.29,5,71.17,71.17,0,0,1-.36,9.79,32.12,32.12,0,0,1-6.06,15.11,29.83,29.83,0,0,1-8.91,8.24,19.8,19.8,0,0,1-7.53,2.36,24.36,24.36,0,0,1-8.17-.33A16.9,16.9,0,0,1,153,61c-.22-.1-.43-.29-.38-.54s.29-.34.53-.41a9.53,9.53,0,0,1,2.81-.28,14.68,14.68,0,0,0,5.82-1.09,11.89,11.89,0,0,0,5.26-4,40.26,40.26,0,0,0,6.78-13.65,24,24,0,0,0,.55-7.17c-.06-1.8,0-3.61-.12-5.4s0-3.3,0-4.95c0-1,.25-1.66,1.23-1.95a3.5,3.5,0,0,0,.51-.26c.92,1.48.84,3.2.92,4.81.28,5.74.14,11.46-1.66,17a28.26,28.26,0,0,1-1.47,3.89c2.64-4,3.88-9.25,4-14.74a31.5,31.5,0,0,0-1-8.57A8.82,8.82,0,0,1,176.29,21.11Z"/><path class="cls-5" d="M63.81,35.57A53.46,53.46,0,0,0,69.6,35a29.54,29.54,0,0,0,7.61-2.15c4.11-1.89,8.15-5.66,7.24-12.34a8.94,8.94,0,0,0-6.08-7.68,20.33,20.33,0,0,0-7.45-1.15,19.48,19.48,0,0,0-4.7.58,17,17,0,0,0-11.39,8,27,27,0,0,0-3.38,19.39,13.34,13.34,0,0,0,9.89,10.67,24.78,24.78,0,0,0,12.48.24,12.24,12.24,0,0,0,5.71-2.7c2.7-2.43,3-7-1.41-8.69-2.05-.77-2.46-.88-3.77,1A6.38,6.38,0,0,1,66.45,42c-2.26-1-3.14-3-3.52-5.31C62.78,35.73,62.85,35.63,63.81,35.57Zm2.38-11.66a3.54,3.54,0,0,1,2.32-1.72,2.38,2.38,0,0,1,2.56.74,2.81,2.81,0,0,1,.28,2.95,3.22,3.22,0,0,1-1.46,1.5,11.52,11.52,0,0,1-5.44,1.43A10.71,10.71,0,0,1,66.19,23.91Z"/><path class="cls-6" d="M187.11,20.18a2.64,2.64,0,0,1-2.41-.83c-1.08-1.25-2.35-.74-3.31-.24a2.7,2.7,0,0,1-3.24-.16c-1-.72-1.48-.58-2,.49s-1.54,1.33-2.45,1.78c-.06-.1-.16-.2-.14-.23.89-1.31,1.11-2.9,1.8-4.29a6.79,6.79,0,0,1,2.52-2.79,3.66,3.66,0,0,0,1.62-3.86,3.54,3.54,0,0,1,.38-2.87c.29-.4.64-.72,1.2-.46.37.17.7.37.4.85a2.18,2.18,0,0,0,.05,2.41,2.36,2.36,0,0,1,.16,1.39,2.31,2.31,0,0,0,1.47,2.49A3.55,3.55,0,0,1,185,15.92,12.54,12.54,0,0,0,187.11,20.18Z"/><path class="cls-7" d="M176.29,21.11a14.75,14.75,0,0,1,1.35,4.73,32.64,32.64,0,0,1,.56,5.48,31.69,31.69,0,0,1-1.91,11.4,29.48,29.48,0,0,1-3.1,5.88c-.13.19-.21.42-.5.46-.19-.47.14-.82.31-1.18a38.88,38.88,0,0,0,3.35-12.24,68.49,68.49,0,0,0,.17-9.5c0-1.6-.35-3.19-.54-4.78Z"/><path class="cls-8" d="M88.93,88.49c2.28,1.63,2.8,3.53,1.19,6.74a5.6,5.6,0,0,1-6.34,2.82,8.64,8.64,0,0,1-4.6-3.15,5.35,5.35,0,0,1-.32-6.14,5.42,5.42,0,0,1,5.46-3.08,2.07,2.07,0,0,1,.52.2.79.79,0,0,1,.58.36c.22.33.44.7.14,1s-.61,0-.91-.1c-1.43-.58-1.43-.59-2.51-.16a3.59,3.59,0,0,1,4.49,3.88c.68-.31.48-1.66,1.58-1.35a2,2,0,0,1,1.46,1.84,4,4,0,0,0-1-2.09C88.27,88.78,88.3,88.76,88.93,88.49Z"/><path class="cls-9" d="M88.93,88.49c-.47.05-.42.28-.16.53a3,3,0,0,1,.91,3.24,2.91,2.91,0,0,0-2.05-2.67A2.5,2.5,0,0,1,85.79,92c.74-1.46,1.07-2.79-.37-3.75-1.19-.78-2.41-1.89-4-.33.82-1.9,1.79-2,4-.68.14-.62-.25-1-.55-1.35-.15-.81-.83-1.22-1.36-1.76,1.23.08,1.27.12,3.16,3.15.56-.1.58-.65.81-1,.11-.16.21-.34.44-.24s.23.27.22.47-.33.59-.2.94c1.55.38,1.55.38,2.4,1.25C89.81,88.78,89.4,88.37,88.93,88.49Z"/><path class="cls-2" d="M161.54,5.94a34.26,34.26,0,0,0-4.49-.67c-2-.3-2.45-.07-3.37,1.78a10.38,10.38,0,0,0-6.35-3.47,21.47,21.47,0,0,0-2.54-.3,15.17,15.17,0,0,0-7.87,1.44c-5.58,2.83-8.35,7.72-9.87,13.52-.15,1.53-.61,3-.84,4.53-.31,2.1-.17,4.21-.31,6.31.11.79.18,1.6.35,2.39,1.11,5.26,4,8.94,9.4,10.25,4.1,1,8.09.92,11.67-1.74.05,0,.16,0,.24,0a11.16,11.16,0,0,1-2.34,5.53,4.92,4.92,0,0,1-2.1,1.41,7.39,7.39,0,0,1-8.64-3c-.16-.24-.31-.48-.46-.72a3.06,3.06,0,0,0-2.21-1.4,7.74,7.74,0,0,0-5.8,1.31,5.44,5.44,0,0,0-2.37,4.48A7.4,7.4,0,0,0,125.87,53a13.62,13.62,0,0,0,5.33,3.44A30.38,30.38,0,0,0,146.85,58C153.63,56.9,158,53,160,46.39c.31-1,.61-2.09.88-3.14,2.11-8.36,3.74-16.82,5.09-25.33a31.78,31.78,0,0,0,.57-5.51C166.48,8.82,165,6.92,161.54,5.94ZM150.62,26a8.55,8.55,0,0,1-2.05,3.68,5.4,5.4,0,0,1-6.27,1.1A2.81,2.81,0,0,1,140.77,29a7.65,7.65,0,0,1-.31-2.81,19,19,0,0,1,1.72-7.26A8.09,8.09,0,0,1,144,16.42a4.94,4.94,0,0,1,5.42-.83,3.16,3.16,0,0,1,1.8,2.4,9.57,9.57,0,0,1,.25,2.39A24.63,24.63,0,0,1,150.62,26Z"/><path class="cls-5" d="M162,7.22a22.08,22.08,0,0,0-6-.92c-.71,0-1,.3-1.08,1a20.15,20.15,0,0,1-.68,3.39,7.63,7.63,0,0,1-.33-.75,7.41,7.41,0,0,0-4.88-4.79,13.45,13.45,0,0,0-3.32-.7,14.17,14.17,0,0,0-9.29,1.77,17.2,17.2,0,0,0-7.12,8.59,31.19,31.19,0,0,0-1.85,6.69,25.25,25.25,0,0,0,.2,11.11,10.62,10.62,0,0,0,3.64,5.8,14.14,14.14,0,0,0,11.42,2.46,9.43,9.43,0,0,0,5-2.79l1.46-1.46a6.36,6.36,0,0,1-.26,2.7,16.86,16.86,0,0,1-2.41,6.32,6,6,0,0,1-3.39,2.43,8.33,8.33,0,0,1-9.59-3.56c-.1-.16-.21-.31-.3-.48a2.33,2.33,0,0,0-2-1.25,6.66,6.66,0,0,0-5.13,1.59,5,5,0,0,0-.64,6.27A11.53,11.53,0,0,0,132,55.48a29.48,29.48,0,0,0,14.24,1.46c5.74-.83,10-3.68,12.12-9.22a71.37,71.37,0,0,0,2.82-10.38c1.55-7,2.89-14,3.93-21a18.69,18.69,0,0,0,.34-4.23C165.2,9,164.05,7.93,162,7.22ZM150.62,26a8.55,8.55,0,0,1-2.05,3.68,5.4,5.4,0,0,1-6.27,1.1A2.81,2.81,0,0,1,140.77,29a7.65,7.65,0,0,1-.31-2.81,19,19,0,0,1,1.72-7.26A8.09,8.09,0,0,1,144,16.42a4.94,4.94,0,0,1,5.42-.83,3.16,3.16,0,0,1,1.8,2.4,9.57,9.57,0,0,1,.25,2.39A24.63,24.63,0,0,1,150.62,26Z"/><path class="cls-2" d="M122.38,4.34a28.92,28.92,0,0,0-4.64-.63c-2-.17-2.23,0-3.08,1.75a10.93,10.93,0,0,0-7.22-3.58c-3.7-.43-7.27-.14-10.57,1.82a17.52,17.52,0,0,0-7.29,8.48A32.36,32.36,0,0,0,87,28.55a14.39,14.39,0,0,0,3.45,8.1c3.63,4.15,12.59,5.63,17.4,2.07.2-.15.36-.44.79-.29a12.61,12.61,0,0,1-2.33,5.4,4.53,4.53,0,0,1-3.14,1.76c-3.26.35-6.17-.12-7.85-3.42-.09-.17-.21-.32-.31-.48a3.09,3.09,0,0,0-2.44-1.51,8,8,0,0,0-4.95,1,5.56,5.56,0,0,0-3,5,7.32,7.32,0,0,0,2.09,5.13,12.94,12.94,0,0,0,5,3.41,30.08,30.08,0,0,0,16.88,1.63,14.82,14.82,0,0,0,11.52-9.11,26.1,26.1,0,0,0,1-2.81c1.83-6.23,3-12.6,4.3-19a47,47,0,0,0,1.34-7.46l.09-.8c.21-.37,0-.82.2-1.18.07-.52.14-1,.2-1.55a20.22,20.22,0,0,0,.23-4.11C127.15,6.89,125.68,5.16,122.38,4.34ZM111.46,24.75a7.91,7.91,0,0,1-2.61,4,5.92,5.92,0,0,1-5.91.31,3.08,3.08,0,0,1-1.41-2.5,16.48,16.48,0,0,1,2.3-10.33,4.93,4.93,0,0,1,5.27-2.53,3.38,3.38,0,0,1,3.14,3c.13.79.13,1.6.19,2.41A21.22,21.22,0,0,1,111.46,24.75Z"/><path class="cls-10" d="M69.17,21a4.39,4.39,0,0,0-3.81,2.07c-1.37,1.85-1.75,4-2.2,6.22a.43.43,0,0,0,.43.58c.33,0,.66,0,1,0A13,13,0,0,0,70.89,28a4.14,4.14,0,0,0,1.74-2.5A3.46,3.46,0,0,0,69.17,21Zm2.18,4.84a3.22,3.22,0,0,1-1.46,1.5,11.52,11.52,0,0,1-5.44,1.43,10.71,10.71,0,0,1,1.74-4.9,3.54,3.54,0,0,1,2.32-1.72,2.38,2.38,0,0,1,2.56.74A2.81,2.81,0,0,1,71.35,25.88Z"/><path class="cls-4" d="M121.59,5.25a39.79,39.79,0,0,0-4.5-.56c-.65-.07-1,.23-1.14.95-.15,1.09-.41,2.17-.66,3.43a6.17,6.17,0,0,1-.37-.65c-1-3.08-3.37-4.53-6.35-5.24a20.43,20.43,0,0,0-4.81-.32,11.88,11.88,0,0,0-6.09,1.65,15.85,15.85,0,0,0-5.28,4.86,22.28,22.28,0,0,0-3.23,7.37c-1.12,4.44-1.82,8.9-.75,13.45.94,4,3.15,7,7.06,8.46a15.75,15.75,0,0,0,5.71,1,10.31,10.31,0,0,0,7.63-3.19l1.48-1.54a7.68,7.68,0,0,1,0,1,22,22,0,0,1-2.2,7.29,6.12,6.12,0,0,1-4.57,3.49,12.62,12.62,0,0,1-4.37-.16,6.43,6.43,0,0,1-4.2-2.9,7.36,7.36,0,0,1-.54-.83,2.62,2.62,0,0,0-2.81-1.49c-.33,0-.67,0-1,0a6.19,6.19,0,0,0-3.86,1.9c-1.38,1.53-1.15,4.48-.17,6a11.39,11.39,0,0,0,5.21,4.24,23.19,23.19,0,0,0,7.1,1.85,31.71,31.71,0,0,0,9.33-.1,13.93,13.93,0,0,0,10.91-8.55,29.78,29.78,0,0,0,1.42-4.31A231.71,231.71,0,0,0,126.37,12C126.83,8.13,125.56,6.11,121.59,5.25Zm-10.13,19.5a7.91,7.91,0,0,1-2.61,4,5.92,5.92,0,0,1-5.91.31,3.08,3.08,0,0,1-1.41-2.5,16.48,16.48,0,0,1,2.3-10.33,4.93,4.93,0,0,1,5.27-2.53,3.38,3.38,0,0,1,3.14,3c.13.79.13,1.6.19,2.41A21.22,21.22,0,0,1,111.46,24.75Z"/><path class="cls-10" d="M113.42,17a4.34,4.34,0,0,0-3.34-4.26c-2.28-.56-4.42-.32-6.14,1.52a8.94,8.94,0,0,0-1.43,1.93,18.3,18.3,0,0,0-2.13,10.12,4.11,4.11,0,0,0,2.34,3.8c2.71,1.17,5.68,1,7.87-1.55A9.4,9.4,0,0,0,112,26.3,17.16,17.16,0,0,0,113.42,19C113.42,18.33,113.47,17.66,113.42,17Zm-2,7.74a7.91,7.91,0,0,1-2.61,4,5.92,5.92,0,0,1-5.91.31,3.08,3.08,0,0,1-1.41-2.5,16.48,16.48,0,0,1,2.3-10.33,4.93,4.93,0,0,1,5.27-2.53,3.38,3.38,0,0,1,3.14,3c.13.79.13,1.6.19,2.41A21.22,21.22,0,0,1,111.46,24.75Z"/><path class="cls-11" d="M152.44,18.67c-.25-3.91-3.54-5-6.17-4.58-2.33.35-3.73,1.92-4.81,3.83a20.07,20.07,0,0,0-2.13,8.59c0,.19,0,.38,0,.57.21,3.72,2,5.43,6.19,5.2a6,6,0,0,0,5.09-3.59A18.21,18.21,0,0,0,152.44,18.67ZM150.62,26a8.55,8.55,0,0,1-2.05,3.68,5.4,5.4,0,0,1-6.27,1.1A2.81,2.81,0,0,1,140.77,29a7.65,7.65,0,0,1-.31-2.81,19,19,0,0,1,1.72-7.26A8.09,8.09,0,0,1,144,16.42a4.94,4.94,0,0,1,5.42-.83,3.16,3.16,0,0,1,1.8,2.4,9.57,9.57,0,0,1,.25,2.39A24.63,24.63,0,0,1,150.62,26Z"/></g></g></svg>